<svg xmlns="http://www.w3.org/2000/svg" viewBox="0 0 171.05 179.34"><path d="M156.49 48c-.44 1.21-1.73 1.54-2.72 2.11q-13.47 7.78-27 15.48c-12.35 7.07-24.74 14-37 21.28-3.08 1.83-5.35 1.64-8.4-.13-19.8-11.58-39.76-22.88-59.67-34.27-1.82-1-3.52-2.3-5.4-3.19s-1.85-1.86-.3-2.78q10.22-6.14 20.54-12.06c1.38-.8 2.72-.18 4 .58 13.92 8.11 27.89 16.14 41.76 24.31 2.36 1.39 4.18 1.52 6.64.07 13.87-8.17 27.87-16.13 41.78-24.24 1.8-1 3.37-1.41 5.24-.28 6.23 3.75 12.49 7.45 18.75 11.16.76.45 1.62.77 1.78 1.96z" fill="#106ba0"/><path d="M91.28 138.47c0-12.27.08-24.54-.07-36.81a5.35 5.35 0 0 1 3-5.32Q108.6 88.2 123 80l34.7-19.89c.87-.49 1.72-1 2.62-1.43 1.41-.65 2.42-.4 2.42 1.39v22.55c0 2-1.67 2.78-3.07 3.58-8.21 4.73-16.47 9.39-24.7 14.09-5.74 3.27-11.4 6.66-17.2 9.81a5 5 0 0 0-2.84 5c.09 15.92 0 31.83.11 47.75 0 2.68-.78 4.36-3.07 5.63-6.07 3.36-12.09 6.81-18.09 10.28-2.4 1.39-2.62-.06-2.62-1.86V158z" fill="#f6bb24"/><path d="M80.41 138.64v36.81c0 3.89-.43 4.24-3.91 2.42-5.85-3.05-11.57-6.36-17.35-9.55-2-1.1-2.48-2.79-2.47-5 0-15.81-.06-31.61.08-47.42a6.05 6.05 0 0 0-3.45-6.07C40 102.39 26.9 94.71 13.61 87.32c-3.36-1.87-5-3.93-4.78-8 .39-5.94.06-11.93.12-17.9 0-3.12.62-3.47 3.18-2q28.49 16.2 56.94 32.45c2.77 1.59 5.56 3.16 8.39 4.65 2.18 1.15 3 2.74 3 5.32-.13 12.26-.05 24.53-.05 36.8z" fill="#f96806"/><path d="M22.63 153.77c-12.38.54-22.73-10.11-22.63-23a22.59 22.59 0 0 1 23.13-22.64 23.41 23.41 0 0 1 23.12 22.78c.47 12.49-11.95 23.8-23.62 22.86z" fill="#f96806"/><path d="M108.56 23.25a22.9 22.9 0 1 1-45.79-.18 22.9 22.9 0 1 1 45.79.18z" fill="#106ba0"/><path d="M148.19 108.57c12.14-.88 22.79 10.15 22.86 22.58s-11.61 22.55-22.38 22.68c-10.94.13-23.21-10.58-23.2-22.43.01-12.4 10.97-23.73 22.72-22.83z" fill="#fdba0e"/></svg>