<svg xmlns="http://www.w3.org/2000/svg" viewBox="0 0 99.64 100"><path d="M47.2.36a10 10 0 0 1 9.62 2.53 10.11 10.11 0 0 1 2.47 10 9.92 9.92 0 0 1-9 7 9.81 9.81 0 0 1-8.77-4.49A10 10 0 0 1 47.2.36z" fill="#eb2568"/><path d="M70.85 9.74c1.28-1.28 2.85-2.55 4.77-2.43a5.74 5.74 0 0 1 5.76 5.82c0 2.37-1.79 4.11-3.33 5.66C68.59 28.15 59.36 37.73 49.81 47 41 38.5 32.54 29.7 23.87 21.09c-2-2-4.66-3.73-5.46-6.61a5.72 5.72 0 0 1 4.66-7.07A6.56 6.56 0 0 1 28.8 9.7c4.22 4.38 8.55 8.67 12.83 13a11.15 11.15 0 0 0 8.17 3.63 10.57 10.57 0 0 0 7.67-3.22c4.53-4.37 8.95-8.89 13.38-13.37z" fill="#eb2568"/><path d="M81.57 20.92c1.35-1.4 3.05-2.78 5.12-2.62a5.69 5.69 0 0 1 5.61 6.34c-.19 2.14-1.74 3.77-3.23 5.16-4.07 3.78-7.87 7.84-11.84 11.71a11.71 11.71 0 0 0-3.69 10.16 12.37 12.37 0 0 0 4 7c4 3.87 7.82 7.86 11.8 11.71 1.37 1.36 2.79 2.93 3 5a5.69 5.69 0 0 1-5.61 6.34c-2.3.12-4.07-1.57-5.57-3.08-9.36-9.61-19-19-28.28-28.62 3-3.34 6.31-6.42 9.46-9.63 6.37-6.51 12.84-12.95 19.23-19.47z" fill="#f2a23d"/><path d="M87.8 40.18a10 10 0 1 1-7 14.31 10.75 10.75 0 0 1-.86-6.23 10 10 0 0 1 7.86-8.08z" fill="#f2a23d"/><path d="M7.36 23.32a5.55 5.55 0 0 1 5.57-4.94c2.12 0 3.88 1.38 5.3 2.81 6.92 7.06 13.94 14 20.92 21 2.54 2.59 5.21 5.06 7.61 7.78C38.31 58.82 29.51 67.3 21 76c-2.18 2-4 4.93-7.14 5.53a5.63 5.63 0 0 1-6.54-5.28c-.22-2.71 1.9-4.73 3.68-6.48l12-12a11.09 11.09 0 0 0 2.93-10.26 12.88 12.88 0 0 0-4-6.49c-4.1-3.89-8-8-12.05-12-1.57-1.41-2.88-3.45-2.52-5.7z" fill="#2ea9db"/><path d="M7.09 40.47c5.71-1.9 12.47 2.52 12.68 8.6A10 10 0 0 1 11 59.94a10.06 10.06 0 0 1-10.6-7c-1.55-5.11 1.46-11.12 6.69-12.47z" fill="#2ea9db"/><path d="M42.43 60.14c2.44-2.37 4.74-4.89 7.36-7 1 .88 2.05 1.74 3 2.67Q64.91 67.86 77 80c1.82 1.83 4.2 3.65 4.34 6.46a5.67 5.67 0 0 1-5.73 6.22c-2.63.1-4.54-2-6.17-3.73-2.88-3.26-6.23-6.06-9.2-9.24-1.85-1.84-3.62-3.9-6-5.06a10.76 10.76 0 0 0-11.84 2.08C38.21 81 33.88 85.1 29.78 89.44c-1.59 1.72-3.64 3.44-6.14 3.24A5.68 5.68 0 0 1 18.35 86c.57-2.24 2.3-3.91 3.82-5.56 6.72-6.79 13.53-13.5 20.26-20.3z" fill="#92c254"/><path d="M47.3 80.34a10.36 10.36 0 0 1 8.7 1.75 11.15 11.15 0 0 1 3.38 5.37 10.08 10.08 0 0 1-3.3 10.31A10 10 0 0 1 40 88.1a10.21 10.21 0 0 1 7.3-7.76z" fill="#92c254"/></svg>